<svg xmlns="http://www.w3.org/2000/svg" width="50" height="50" viewBox="0 0 50 50">
    <path fill="#fff" style="text-indent:0;text-align:start;line-height:normal;text-transform:none;block-progression:tb;-inkscape-font-specification:Bitstream Vera Sans" d="M 25 1 C 11.756603 1 1 11.756603 1 25 C 1 38.243397 11.756603 49 25 49 C 38.243397 49 49 38.243397 49 25 C 49 11.756603 38.243397 1 25 1 z M 25 3 C 37.162603 3 47 12.837397 47 25 C 47 37.162603 37.162603 47 25 47 C 12.837397 47 3 37.162603 3 25 C 3 12.837397 12.837397 3 25 3 z M 17 19 C 15.343146 19 14 20.343146 14 22 C 14 23.656854 15.343146 25 17 25 C 18.656854 25 20 23.656854 20 22 C 20 20.343146 18.656854 19 17 19 z M 33 19 C 31.343146 19 30 20.343146 30 22 C 30 23.656854 31.343146 25 33 25 C 34.656854 25 36 23.656854 36 22 C 36 20.343146 34.656854 19 33 19 z M 11.84375 30 A 1.0001 1.0001 0 0 0 11.1875 31.59375 C 11.1875 31.59375 16.416667 39 25 39 C 33.583333 39 38.8125 31.59375 38.8125 31.59375 A 1.0063276 1.0063276 0 1 0 37.1875 30.40625 C 37.1875 30.40625 32.416667 37 25 37 C 17.583333 37 12.8125 30.40625 12.8125 30.40625 A 1.0001 1.0001 0 0 0 11.84375 30 z" color="#000" overflow="visible" enable-background="accumulate" font-family="Bitstream Vera Sans"></path>
</svg>